# xmcd
# 
# Track frame offsets:
#     182
#     11040
#     21765
#     29987
#     45537
#     58155
#     67307
#     74207
#     88700
#     101015
#     108720
#     116715
# 
# Disc length: 1703
# 
# Revision: 2
# Processed by: cddbd v1.5.2PL0 Copyright (c) Steve Scherf et al.
# Submitted via: fre:ac v1.0.17
# 
DISCID=bd06a50c
DTITLE=Koos Du Plessis - Herbergier
DYEAR=0
DGENRE=Afrikaans
TTITLE0=Skimme
TTITLE1=Vermiste Mense
TTITLE2=Herbergier
TTITLE3=Spore Op Die Maan
TTITLE4=Mornay
TTITLE5=Droom Swendelaar
TTITLE6=Hier's Ons Almal Tesaam
TTITLE7=Nokturne
TTITLE8=Koue-Vuur
TTITLE9=Nes Ek Wil
TTITLE10=Soektog
TTITLE11=Nagwag
EXTD=
EXTT0=
EXTT1=
EXTT2=
EXTT3=
EXTT4=
EXTT5=
EXTT6=
EXTT7=
EXTT8=
EXTT9=
EXTT10=
EXTT11=
PLAYORDER=
